<svg width="24" height="21" viewBox="0 0 24 21" fill="none" xmlns="http://www.w3.org/2000/svg">
<path fill-rule="evenodd" clip-rule="evenodd" d="M13.086 2.61798L12.1966 3.50258L11.3276 2.63823C9.82461 1.14324 7.43602 0.999771 5.76307 2.304L2.47451 4.86776C1.17605 5.88004 1.03355 7.78352 2.16696 8.97592L11.4921 18.7864C11.8701 19.184 12.51 19.1722 12.8729 18.7608L21.9034 8.52097C22.9696 7.31199 22.7886 5.45879 21.5084 4.47649L18.625 2.264C16.9517 0.980107 14.5803 1.13166 13.086 2.61798ZM1.61029 3.77102L4.89885 1.20726C7.08463 -0.496779 10.1866 -0.347338 12.196 1.53492C14.193 -0.355326 17.2869 -0.522623 19.4807 1.16067L22.3641 3.37316C24.2844 4.84661 24.5558 7.6264 22.9565 9.43989L13.9261 19.6797C13.019 20.7082 11.4191 20.7379 10.4741 19.7437L1.14896 9.93326C-0.551159 8.14466 -0.337404 5.28944 1.61029 3.77102Z" fill="url(#paint0_linear_3607_427195)"/>
<path fill-rule="evenodd" clip-rule="evenodd" d="M12.1881 3.85155L11.3567 3.03204C9.91855 1.6146 7.63309 1.47858 6.03236 2.71515L2.88578 5.14591C1.64338 6.10568 1.50703 7.91041 2.59151 9.04096L11.514 18.3425C11.8757 18.7195 12.488 18.7083 12.8352 18.3182L21.4758 8.60961C22.496 7.46334 22.3228 5.70628 21.0979 4.77494L18.339 2.67722C16.738 1.45993 14.4689 1.60362 13.0391 3.01284L12.1881 3.85155ZM11.6726 2.72063L12.1881 3.22873L12.7231 2.70143C14.3118 1.13564 16.833 0.975979 18.6119 2.32852L21.3708 4.42624C22.7999 5.5128 23.0019 7.56271 21.8117 8.90002L13.1711 18.6086C12.6504 19.1937 11.7319 19.2106 11.1893 18.645L2.26683 9.34351C1.0016 8.02455 1.16068 5.91902 2.61015 4.79929L5.75672 2.36853C7.53531 0.994561 10.0747 1.1457 11.6726 2.72063Z" fill="url(#paint1_linear_3607_427195)"/>
<g filter="url(#filter0_d_3607_427195)">
<path d="M11.3283 2.65363L12.1964 3.51619L13.0849 2.63343C14.5777 1.15018 16.9467 0.998939 18.6183 2.28018L21.4988 4.48809C22.7776 5.46836 22.9584 7.31773 21.8933 8.52422L12.872 18.7428C12.5095 19.1534 11.8702 19.1652 11.4926 18.7684L2.17697 8.97823C1.04471 7.78829 1.18707 5.88874 2.48421 4.87856L5.76942 2.3201C7.44068 1.01856 9.82684 1.16173 11.3283 2.65363Z" fill="url(#paint2_linear_3607_427195)"/>
</g>
<g filter="url(#filter1_d_3607_427195)">
<path fill-rule="evenodd" clip-rule="evenodd" d="M12.1964 4.82726L10.6686 3.30917C9.50076 2.1488 7.64485 2.03745 6.34499 3.04975L3.05977 5.60821C2.19501 6.28167 2.10011 7.54803 2.85495 8.34132L12.1706 18.1315L21.1919 7.91287C21.902 7.10855 21.7815 5.87564 20.9289 5.22213L18.0484 3.01421C16.7483 2.01769 14.9057 2.13532 13.7446 3.28896L12.1964 4.82726ZM12.1964 3.51619L11.3283 2.65363C9.82684 1.16173 7.44068 1.01856 5.76942 2.3201L2.48421 4.87856C1.18707 5.88874 1.04471 7.78829 2.17697 8.97823L11.4926 18.7684C11.8702 19.1652 12.5095 19.1534 12.872 18.7428L21.8933 8.52422C22.9584 7.31773 22.7776 5.46836 21.4988 4.48809L18.6183 2.28018C16.9467 0.998939 14.5777 1.15018 13.0849 2.63343L12.1964 3.51619Z" fill="url(#paint3_linear_3607_427195)"/>
</g>
<defs>
<filter id="filter0_d_3607_427195" x="1.41177" y="1.4115" width="21.1765" height="17.6471" filterUnits="userSpaceOnUse" color-interpolation-filters="sRGB">
<feFlood flood-opacity="0" result="BackgroundImageFix"/>
<feColorMatrix in="SourceAlpha" type="matrix" values="0 0 0 0 0 0 0 0 0 0 0 0 0 0 0 0 0 0 127 0" result="hardAlpha"/>
<feOffset/>
<feColorMatrix type="matrix" values="0 0 0 0 0 0 0 0 0 0 0 0 0 0 0 0 0 0 0.25 0"/>
<feBlend mode="normal" in2="BackgroundImageFix" result="effect1_dropShadow_3607_427195"/>
<feBlend mode="normal" in="SourceGraphic" in2="effect1_dropShadow_3607_427195" result="shape"/>
</filter>
<filter id="filter1_d_3607_427195" x="1.41177" y="1.4115" width="21.1765" height="17.6471" filterUnits="userSpaceOnUse" color-interpolation-filters="sRGB">
<feFlood flood-opacity="0" result="BackgroundImageFix"/>
<feColorMatrix in="SourceAlpha" type="matrix" values="0 0 0 0 0 0 0 0 0 0 0 0 0 0 0 0 0 0 127 0" result="hardAlpha"/>
<feOffset/>
<feColorMatrix type="matrix" values="0 0 0 0 0 0 0 0 0 0 0 0 0 0 0 0 0 0 0.25 0"/>
<feBlend mode="normal" in2="BackgroundImageFix" result="effect1_dropShadow_3607_427195"/>
<feBlend mode="normal" in="SourceGraphic" in2="effect1_dropShadow_3607_427195" result="shape"/>
</filter>
<linearGradient id="paint0_linear_3607_427195" x1="11.9631" y1="0.0188815" x2="11.9631" y2="19.5276" gradientUnits="userSpaceOnUse">
<stop stop-color="#8B1536"/>
<stop offset="1" stop-color="#3A0538"/>
</linearGradient>
<linearGradient id="paint1_linear_3607_427195" x1="11.9647" y1="0.548571" x2="11.9647" y2="19.0452" gradientUnits="userSpaceOnUse">
<stop stop-color="#5A0606"/>
<stop offset="1" stop-color="#270007"/>
</linearGradient>
<linearGradient id="paint2_linear_3607_427195" x1="11.9632" y1="0.0399137" x2="11.9632" y2="19.5083" gradientUnits="userSpaceOnUse">
<stop stop-color="#E30C07"/>
<stop offset="0.640625" stop-color="#E62D7A"/>
<stop offset="1" stop-color="#FF228E"/>
</linearGradient>
<linearGradient id="paint3_linear_3607_427195" x1="11.9632" y1="0.0397012" x2="11.9632" y2="19.5081" gradientUnits="userSpaceOnUse">
<stop stop-color="#FFECA9"/>
<stop offset="0.4375" stop-color="#FF3F3F"/>
<stop offset="1" stop-color="#EE3372"/>
</linearGradient>
</defs>
</svg>
