<svg width="45" height="40" viewBox="0 0 45 40" fill="none" xmlns="http://www.w3.org/2000/svg">
<g filter="url(#filter0_dd_3607_427150)">
<path d="M7 17.5H2L7 28.5L21.5413 36.7401C21.8419 36.9105 22.1817 37 22.5273 37H24.4727C24.8183 37 25.1581 36.9105 25.4587 36.7401L40 28.5L45 17.5H40V9.00003L25 3.05176e-05H22.5L7 9.00003V17.5Z" fill="url(#paint0_linear_3607_427150)"/>
</g>
<path d="M37 25.9828V10.4828L23.7455 3L10 10.4828V25.9828L23.7455 34L37 25.9828Z" stroke="#685785"/>
<circle cx="23.5" cy="18.5" r="11.5" fill="#1C053B"/>
<circle cx="23.5" cy="18.5" r="11.5" fill="url(#paint1_radial_3607_427150)"/>
<defs>
<filter id="filter0_dd_3607_427150" x="0" y="3.05176e-05" width="45" height="40" filterUnits="userSpaceOnUse" color-interpolation-filters="sRGB">
<feFlood flood-opacity="0" result="BackgroundImageFix"/>
<feColorMatrix in="SourceAlpha" type="matrix" values="0 0 0 0 0 0 0 0 0 0 0 0 0 0 0 0 0 0 127 0" result="hardAlpha"/>
<feOffset dx="-2" dy="3"/>
<feColorMatrix type="matrix" values="0 0 0 0 0.286275 0 0 0 0 0.2 0 0 0 0 0.380392 0 0 0 1 0"/>
<feBlend mode="normal" in2="BackgroundImageFix" result="effect1_dropShadow_3607_427150"/>
<feColorMatrix in="SourceAlpha" type="matrix" values="0 0 0 0 0 0 0 0 0 0 0 0 0 0 0 0 0 0 127 0" result="hardAlpha"/>
<feOffset dx="-1" dy="1"/>
<feColorMatrix type="matrix" values="0 0 0 0 0.160784 0 0 0 0 0.0784314 0 0 0 0 0.301961 0 0 0 1 0"/>
<feBlend mode="normal" in2="effect1_dropShadow_3607_427150" result="effect2_dropShadow_3607_427150"/>
<feBlend mode="normal" in="SourceGraphic" in2="effect2_dropShadow_3607_427150" result="shape"/>
</filter>
<linearGradient id="paint0_linear_3607_427150" x1="23.5" y1="3.05176e-05" x2="23.5" y2="37" gradientUnits="userSpaceOnUse">
<stop stop-color="#D3CDE1"/>
<stop offset="1" stop-color="#B1A7CA"/>
</linearGradient>
<radialGradient id="paint1_radial_3607_427150" cx="0" cy="0" r="1" gradientUnits="userSpaceOnUse" gradientTransform="translate(23.5 18.5) rotate(90) scale(11.5)">
<stop stop-color="#350F58"/>
<stop offset="1" stop-color="#280C47"/>
</radialGradient>
</defs>
</svg>
