<svg width="17" height="24" viewBox="0 0 17 24" fill="none" xmlns="http://www.w3.org/2000/svg">
<path d="M1.61752 14.3002L4.69419 14.0352C5.01203 14.0078 5.24867 14.3109 5.13172 14.5956L1.76733 22.7853C1.59261 23.2106 2.16347 23.5509 2.48404 23.2126L15.3849 9.59571C15.5205 9.45255 15.3938 9.22536 15.1943 9.25405L10.9634 9.86251L14.0904 4.24971C14.3268 3.82534 14.1346 3.29786 13.6739 3.10701L7.81885 0.681117C7.38027 0.499403 6.87136 0.696176 6.68696 1.11876L1.18338 13.7318C1.05869 14.0175 1.29574 14.3279 1.61752 14.3002Z" fill="url(#paint0_linear_3607_427182)"/>
<path fill-rule="evenodd" clip-rule="evenodd" d="M8.25072 0.133271L14.0179 2.52056C14.9254 2.89619 15.3041 3.93435 14.8383 4.76958L12.5507 8.87212L15.0549 8.51231C16.0373 8.37115 16.6615 9.48902 15.9935 10.1934L3.28628 23.5936C2.339 24.5925 0.65213 23.5878 1.16843 22.3321L4.23145 14.8829L1.8828 15.085C0.931943 15.1668 0.231472 14.2505 0.599922 13.4069L6.02092 0.994638C6.38417 0.162912 7.38672 -0.224372 8.25072 0.133271ZM14.0929 4.38818C14.3258 3.97056 14.1364 3.45148 13.6827 3.26367L7.91547 0.876382C7.48347 0.69756 6.98219 0.891202 6.80057 1.30707L1.37957 13.7193C1.25675 14.0006 1.49025 14.306 1.8072 14.2787L4.83769 14.018C5.15077 13.991 5.38386 14.2893 5.26866 14.5694L1.95476 22.6288C1.78266 23.0473 2.34495 23.3823 2.66071 23.0493L15.368 9.6491C15.5015 9.50823 15.3767 9.28465 15.1802 9.31288L11.0129 9.91166L14.0929 4.38818Z" fill="#652301"/>
<mask id="mask0_3607_427182" style="mask-type:alpha" maskUnits="userSpaceOnUse" x="1" y="0" width="15" height="24">
<path d="M1.61752 14.3002L4.69419 14.0352C5.01203 14.0078 5.24867 14.3109 5.13172 14.5956L1.76733 22.7853C1.59261 23.2106 2.16347 23.5509 2.48404 23.2126L15.3849 9.59571C15.5205 9.45255 15.3938 9.22536 15.1943 9.25405L10.9634 9.86251L14.0904 4.24971C14.3268 3.82534 14.1346 3.29786 13.6739 3.10701L7.81885 0.681117C7.38027 0.499403 6.87136 0.696176 6.68696 1.11876L1.18338 13.7318C1.05869 14.0175 1.29574 14.3279 1.61752 14.3002Z" fill="url(#paint1_linear_3607_427182)"/>
</mask>
<g mask="url(#mask0_3607_427182)">
<path d="M8.73133 12.6886L1.7991 24.0055L3.29019 25.9485L17.3901 8.40869L8.73133 12.6886Z" fill="url(#paint2_linear_3607_427182)"/>
<path d="M6.34665 10.4806L8.70082 12.9561L18.0399 8.40869L6.34665 10.4806Z" fill="url(#paint3_linear_3607_427182)"/>
<path d="M9.85462 3.79717L6.34665 10.3581L11.6996 9.51895L16.091 3.21228L9.85462 3.79717Z" fill="url(#paint4_linear_3607_427182)"/>
<path d="M5.69711 0.896783L9.98463 3.86187H15.4415V-0.909226L7.39542 -2.63437L5.69711 0.896783Z" fill="url(#paint5_linear_3607_427182)"/>
</g>
<defs>
<linearGradient id="paint0_linear_3607_427182" x1="8.3492" y1="0.350962" x2="8.3492" y2="24.8753" gradientUnits="userSpaceOnUse">
<stop stop-color="#FACB0E"/>
<stop offset="0.671875" stop-color="#F77C01"/>
<stop offset="1" stop-color="#FF4921"/>
</linearGradient>
<linearGradient id="paint1_linear_3607_427182" x1="8.3492" y1="0.350962" x2="8.3492" y2="24.8753" gradientUnits="userSpaceOnUse">
<stop stop-color="#FACB0E"/>
<stop offset="0.671875" stop-color="#F77C01"/>
<stop offset="1" stop-color="#FF4921"/>
</linearGradient>
<linearGradient id="paint2_linear_3607_427182" x1="0.726569" y1="20.0669" x2="13.4542" y2="14.7444" gradientUnits="userSpaceOnUse">
<stop offset="0.0001" stop-color="#A52300"/>
<stop offset="1" stop-color="#EA6000"/>
</linearGradient>
<linearGradient id="paint3_linear_3607_427182" x1="12.1933" y1="8.40869" x2="12.1933" y2="12.9561" gradientUnits="userSpaceOnUse">
<stop stop-color="#F7EE10"/>
<stop offset="1" stop-color="#FFB936"/>
</linearGradient>
<linearGradient id="paint4_linear_3607_427182" x1="7.54196" y1="10.3836" x2="9.52331" y2="5.03078" gradientUnits="userSpaceOnUse">
<stop offset="0.0001" stop-color="#E3562F"/>
<stop offset="1" stop-color="#FF881B"/>
</linearGradient>
<linearGradient id="paint5_linear_3607_427182" x1="8.70394" y1="-0.639673" x2="10.4678" y2="3.90129" gradientUnits="userSpaceOnUse">
<stop stop-color="#F9BD0B"/>
<stop offset="0.729167" stop-color="#FADA1E"/>
</linearGradient>
</defs>
</svg>
